:SAMPLES-PER-SECOND 30
:FRAME-RANGE 1-744
:FULLY-SPECIFIED
:DEGREES
24
root  -61.8851 39.4741 -89.1062 -179.406 43.3572 176.387
RightUpLeg  -4.50488 -7.0127 -1.01133
RightLeg  14.32 3.79924 1.44243
RightFoot  -20.1948 0.208214 4.45609
RightToes  -5.28216e-011 1.2921e-014 -6.02303e-014
Spine  -8.36832 -3.60441 1.40004
Spine1  8.68 -4.12994 0.812778
HEad  10.6557 -19.3805 -4.4203
LeftShoulder1  1.23739 -1.22994 -21.1435
LeftArm  -6.5443 0.0774165 -56.1703
LeftForeArm  35.3344 3.5726 -10.8404
LeftHand  -0.0443759 4.64247 3.48486
RightShoulder  0.945405 -0.393622 26.3043
RightArm  -21.681 4.69511 52.7849
RightForeArm  65.7317 -5.76859 5.33897
RightHand  0.335871 -7.47231 -19.4159
LeftUpLeg  -7.30055 1.26566 0.04901
LeftLeg  16.5769 12.3004 4.50684
LeftFoot  -9.13634 0.190276 -7.03924
LeftToes  -9.4837e-011 -7.11147e-011 -1.07582e-011
25
root  -61.6954 39.3899 -89.3658 -179.368 43.3311 176.547
RightUpLeg  -4.09124 -7.22274 -1.05621
RightLeg  14.8357 3.96967 1.52564
RightFoot  -21.1097 0.278811 4.93545
RightToes  -5.28216e-011 1.2921e-014 -6.02303e-014
Spine  -8.00697 -3.43106 1.88435
Spine1  8.57788 -3.97064 0.948342
HEad  10.8394 -18.3146 -5.09297
LeftShoulder1  1.12278 -0.789577 -21.2849
LeftArm  -6.87516 1.61331 -55.0947
LeftForeArm  34.1711 3.60772 -10.7802
LeftHand  -0.0444682 4.59064 3.28157
RightShoulder  0.984 -0.299075 26.5897
RightArm  -22.6441 3.69363 52.1719
RightForeArm  67.8403 -5.62019 4.91624
RightHand  0.374214 -7.72456 -19.246
LeftUpLeg  -8.71082 2.09214 0.263025
LeftLeg  19.5079 12.1617 5.0627
LeftFoot  -8.89039 0.205925 -7.13225
LeftToes  -9.4837e-011 -7.11147e-011 -1.07582e-011
26
root  -61.4917 39.3098 -89.6633 -179.434 43.2097 176.524
RightUpLeg  -3.64146 -7.51122 -1.29037
RightLeg  15.3922 4.17097 1.61691
RightFoot  -22.1048 0.304516 4.82147
RightToes  -5.28216e-011 1.2921e-014 -6.02303e-014
Spine  -7.68767 -3.25437 2.21206
Spine1  8.58763 -3.79998 1.05718
HEad  11.0734 -16.9254 -5.74442
LeftShoulder1  1.06077 -0.562834 -21.2881
LeftArm  -7.0152 3.52497 -54.1191
LeftForeArm  33.1912 3.53492 -10.7987
LeftHand  -0.0448971 4.55275 3.20924
RightShoulder  1.01163 -0.238778 26.8652
RightArm  -23.6547 2.66191 51.3836
RightForeArm  69.526 -5.47768 4.44425
RightHand  0.405781 -8.02262 -18.528
LeftUpLeg  -10.2255 2.33277 0.34332
LeftLeg  21.7847 12.0599 5.57936
LeftFoot  -8.50228 0.229867 -7.21576
LeftToes  -9.4837e-011 -7.11147e-011 -1.07582e-011
27
root  -61.2593 39.2324 -90.0055 -179.487 42.9704 176.448
RightUpLeg  -3.05414 -7.50441 -1.53151
RightLeg  15.7015 4.02661 1.57084
RightFoot  -22.8513 0.385736 5.36257
RightToes  -5.28216e-011 1.2921e-014 -6.02303e-014
Spine  -7.30991 -3.08352 2.54839
Spine1  8.4324 -3.62421 1.07344
HEad  11.8132 -14.7245 -6.46462
LeftShoulder1  0.975967 -0.253702 -21.2853
LeftArm  -7.02221 5.53323 -53.1369
LeftForeArm  32.71 3.55492 -10.8575
LeftHand  -0.0421759 4.4211 2.44069
RightShoulder  1.02237 -0.227499 27.105
RightArm  -25.4865 1.61961 50.6243
RightForeArm  71.4528 -5.23287 3.42402
RightHand  0.446543 -8.31749 -18.3038
LeftUpLeg  -11.8325 1.9713 0.420445
LeftLeg  23.1051 11.9191 5.84638
LeftFoot  -8.18214 0.234443 -6.71994
LeftToes  -9.4837e-011 -7.11147e-011 -1.07582e-011
28
root  -61.0029 39.1767 -90.3965 -179.64 42.8913 176.04
RightUpLeg  -2.53259 -7.53514 -2.0651
RightLeg  15.897 4.03712 1.5448
RightFoot  -22.9609 0.40662 5.52404
RightToes  -5.28216e-011 1.2921e-014 -6.02303e-014
Spine  -6.9178 -2.77497 2.74772
Spine1  8.05542 -3.27902 0.988707
HEad  13.0052 -11.7722 -7.20317
LeftShoulder1  0.855661 0.194505 -21.3719
LeftArm  -6.72316 7.53599 -52.1096
LeftForeArm  32.5712 3.82812 -11.0344
LeftHand  -0.043641 4.65502 3.40647
RightShoulder  1.05054 -0.15974 27.299
RightArm  -27.2229 0.300592 49.7365
RightForeArm  72.7033 -5.01891 2.443
RightHand  0.478506 -8.58769 -17.9514
LeftUpLeg  -13.356 1.49422 0.316443
LeftLeg  22.8974 11.489 5.60107
LeftFoot  -7.88276 0.251335 -6.75628
LeftToes  -9.4837e-011 -7.11147e-011 -1.07582e-011
29
root  -60.7278 39.1428 -90.851 -179.778 42.8605 175.649
RightUpLeg  -1.89298 -8.24577 -2.78357
RightLeg  15.9688 4.59991 1.80709
RightFoot  -22.2852 0.302204 4.73025
RightToes  -5.28216e-011 1.2921e-014 -6.02303e-014
Spine  -6.65692 -2.32294 3.3436
Spine1  7.89606 -2.71749 0.488069
HEad  14.033 -8.89275 -7.3626
LeftShoulder1  0.731133 0.648604 -21.3849
LeftArm  -6.52035 9.3356 -51.2145
LeftForeArm  32.247 4.42075 -11.1664
LeftHand  -0.0385856 4.86641 3.43388
RightShoulder  1.08744 -0.0702464 27.533
RightArm  -28.656 -1.12353 48.6631
RightForeArm  73.1777 -4.85992 1.6123
RightHand  0.535733 -9.01353 -17.7023
LeftUpLeg  -14.7443 1.04509 0.269771
LeftLeg  21.5118 11.1282 5.11783
LeftFoot  -6.98817 0.301644 -6.83027
LeftToes  -9.4837e-011 -7.11147e-011 -1.07582e-011
